<svg width="1024" height="1024" viewBox="0 0 1024 1024" fill="none" xmlns="http://www.w3.org/2000/svg">
  <rect x="64" y="64" width="896" height="896" rx="220" fill="#FFFFFF"/>
  <rect x="280" y="280" width="464" height="464" rx="90" fill="#2F5CFF"/>
  <rect x="360" y="360" width="304" height="304" rx="70" fill="#6B8CFF"/>
  <g fill="#2F5CFF">
    <rect x="220" y="220" width="40" height="40" rx="12"/>
    <rect x="330" y="220" width="40" height="40" rx="12"/>
    <rect x="440" y="220" width="40" height="40" rx="12"/>
    <rect x="550" y="220" width="40" height="40" rx="12"/>
    <rect x="660" y="220" width="40" height="40" rx="12"/>
    <rect x="770" y="220" width="40" height="40" rx="12"/>
    <rect x="220" y="764" width="40" height="40" rx="12"/>
    <rect x="330" y="764" width="40" height="40" rx="12"/>
    <rect x="440" y="764" width="40" height="40" rx="12"/>
    <rect x="550" y="764" width="40" height="40" rx="12"/>
    <rect x="660" y="764" width="40" height="40" rx="12"/>
    <rect x="770" y="764" width="40" height="40" rx="12"/>
    <rect x="220" y="220" width="40" height="40" rx="12"/>
    <rect x="220" y="330" width="40" height="40" rx="12"/>
    <rect x="220" y="440" width="40" height="40" rx="12"/>
    <rect x="220" y="550" width="40" height="40" rx="12"/>
    <rect x="220" y="660" width="40" height="40" rx="12"/>
    <rect x="220" y="770" width="40" height="40" rx="12"/>
    <rect x="764" y="220" width="40" height="40" rx="12"/>
    <rect x="764" y="330" width="40" height="40" rx="12"/>
    <rect x="764" y="440" width="40" height="40" rx="12"/>
    <rect x="764" y="550" width="40" height="40" rx="12"/>
    <rect x="764" y="660" width="40" height="40" rx="12"/>
    <rect x="764" y="770" width="40" height="40" rx="12"/>
  </g>
</svg>
